<?xml version="1.0" standalone="no"?>
<!DOCTYPE svg PUBLIC "-//W3C//DTD SVG 20010904//EN"
 "http://www.w3.org/TR/2001/REC-SVG-20010904/DTD/svg10.dtd">
<svg version="1.0" xmlns="http://www.w3.org/2000/svg"
 width="300.000000pt" height="225.000000pt" viewBox="0 0 300.000000 225.000000"
 preserveAspectRatio="xMidYMid meet">
<metadata>
Created by potrace 1.10, written by Peter Selinger 2001-2011
</metadata>
<g transform="translate(0.000000,225.000000) scale(0.100000,-0.100000)"
fill="#000000" stroke="none">
<path d="M667 2179 c12 -13 132 -188 267 -388 l246 -365 0 -363 0 -363 165 0
165 0 0 35 0 34 -127 3 -128 3 -1 337 -1 336 -101 149 c-55 81 -156 231 -225
333 l-125 185 96 3 c52 1 101 1 108 -2 12 -5 317 -449 325 -474 2 -7 78 97
169 232 l165 245 108 1 108 0 -64 -92 c-294 -423 -349 -506 -368 -556 -30 -80
-37 -219 -14 -298 34 -118 95 -195 295 -364 63 -54 124 -111 136 -127 79 -107
72 -198 -21 -269 -67 -51 -197 -45 -266 13 -35 30 -60 75 -68 123 -6 31 -10
35 -36 35 -26 0 -30 -4 -33 -29 -8 -68 63 -177 140 -217 186 -95 409 19 408
210 -1 104 -51 181 -203 307 -123 104 -193 171 -227 220 -41 59 -70 152 -70
226 1 116 26 165 259 503 118 171 230 330 250 354 34 42 34 44 11 38 -14 -4
-106 -7 -205 -7 l-180 -1 -140 -209 c-77 -115 -142 -209 -145 -209 -3 0 -68
94 -145 209 l-140 209 -180 1 c-99 0 -191 3 -205 7 l-25 6 22 -24z"/>
<path d="M1812 1689 c3 -31 7 -35 43 -43 115 -24 177 -64 237 -151 38 -56 64
-143 48 -159 -10 -10 -152 -12 -168 -2 -5 3 -13 18 -17 33 -15 64 -94 111
-163 98 -110 -20 -162 -148 -106 -257 24 -46 76 -100 216 -220 226 -196 296
-324 269 -496 -47 -304 -364 -459 -657 -321 -141 66 -228 186 -255 353 -6 33
-12 62 -14 66 -2 4 -18 5 -35 2 -37 -5 -39 -25 -10 -136 27 -106 71 -184 144
-254 134 -129 322 -179 517 -138 165 35 300 156 360 322 34 93 32 227 -4 324
-38 104 -107 192 -234 301 -228 196 -271 256 -239 334 24 57 91 69 132 24 9
-10 19 -41 22 -69 l5 -50 153 0 c140 0 154 2 163 19 14 26 -12 162 -45 229
-55 114 -182 204 -307 218 l-58 7 3 -34z"/>
</g>
</svg>
